<svg width="380" height="122" viewBox="0 0 380 122" fill="none" xmlns="http://www.w3.org/2000/svg">
<g clip-path="url(#clip0_1_2)">
<rect width="380" height="122" fill="white"/>
<g clip-path="url(#clip1_1_2)">
<rect width="368" height="12" fill="#D9D9D9"/>
<path d="M69.9121 74H61.8326V47.8182H70.2701C72.8098 47.8182 74.9831 48.3423 76.7899 49.3906C78.5968 50.4304 79.9817 51.9261 80.9448 53.8778C81.9078 55.821 82.3894 58.1477 82.3894 60.858C82.3894 63.5852 81.9036 65.9332 80.932 67.902C79.9604 69.8622 78.5456 71.3707 76.6877 72.4276C74.8297 73.4759 72.5712 74 69.9121 74ZM65.003 71.1875H69.7076C71.8723 71.1875 73.6664 70.7699 75.0897 69.9347C76.513 69.0994 77.574 67.9105 78.2729 66.3679C78.9718 64.8253 79.3212 62.9886 79.3212 60.858C79.3212 58.7443 78.976 56.9247 78.2857 55.3991C77.5953 53.8651 76.5641 52.6889 75.1919 51.8707C73.8198 51.044 72.111 50.6307 70.0655 50.6307H65.003V71.1875ZM87.2985 74V54.3636H90.3155V74H87.2985ZM88.8326 51.0909C88.2445 51.0909 87.7374 50.8906 87.3113 50.4901C86.8936 50.0895 86.6848 49.608 86.6848 49.0455C86.6848 48.483 86.8936 48.0014 87.3113 47.6009C87.7374 47.2003 88.2445 47 88.8326 47C89.4206 47 89.9235 47.2003 90.3411 47.6009C90.7672 48.0014 90.9803 48.483 90.9803 49.0455C90.9803 49.608 90.7672 50.0895 90.3411 50.4901C89.9235 50.8906 89.4206 51.0909 88.8326 51.0909ZM104.074 74.4091C102.182 74.4091 100.55 73.9915 99.1781 73.1562C97.8145 72.3125 96.7619 71.1364 96.0204 69.6278C95.2875 68.1108 94.921 66.3466 94.921 64.3352C94.921 62.3239 95.2875 60.5511 96.0204 59.017C96.7619 57.4744 97.7931 56.2727 99.1142 55.4119C100.444 54.5426 101.995 54.108 103.768 54.108C104.79 54.108 105.8 54.2784 106.797 54.6193C107.795 54.9602 108.702 55.5142 109.52 56.2812C110.339 57.0398 110.991 58.0455 111.476 59.2983C111.962 60.5511 112.205 62.0937 112.205 63.9261V65.2045H97.0687V62.5966H109.137C109.137 61.4886 108.915 60.5 108.472 59.6307C108.037 58.7614 107.415 58.0753 106.606 57.5724C105.805 57.0696 104.858 56.8182 103.768 56.8182C102.566 56.8182 101.526 57.1165 100.648 57.7131C99.7789 58.3011 99.1099 59.0682 98.6412 60.0142C98.1724 60.9602 97.938 61.9744 97.938 63.0568V64.7955C97.938 66.2784 98.1937 67.5355 98.7051 68.5668C99.225 69.5895 99.9451 70.3693 100.866 70.9062C101.786 71.4347 102.856 71.6989 104.074 71.6989C104.867 71.6989 105.583 71.5881 106.222 71.3665C106.87 71.1364 107.428 70.7955 107.897 70.3438C108.366 69.8835 108.728 69.3125 108.983 68.6307L111.898 69.4489C111.591 70.4375 111.076 71.3068 110.351 72.0568C109.627 72.7983 108.732 73.3778 107.667 73.7955C106.601 74.2045 105.404 74.4091 104.074 74.4091ZM125.334 54.3636V56.9205H115.158V54.3636H125.334ZM118.124 49.6591H121.141V68.375C121.141 69.2273 121.265 69.8665 121.512 70.2926C121.768 70.7102 122.091 70.9915 122.483 71.1364C122.884 71.2727 123.306 71.3409 123.749 71.3409C124.081 71.3409 124.354 71.3239 124.567 71.2898C124.78 71.2472 124.951 71.2131 125.079 71.1875L125.692 73.8977C125.488 73.9744 125.202 74.0511 124.836 74.1278C124.469 74.2131 124.005 74.2557 123.442 74.2557C122.59 74.2557 121.755 74.0724 120.937 73.706C120.127 73.3395 119.454 72.7812 118.917 72.0312C118.388 71.2812 118.124 70.3352 118.124 69.1932V49.6591ZM137.287 74.358C135.566 74.358 134.083 74.0426 132.839 73.4119C131.594 72.7812 130.635 71.9162 129.962 70.8168C129.289 69.7173 128.952 68.4602 128.952 67.0455C128.952 65.9545 129.182 64.9872 129.643 64.1435C130.111 63.2912 130.755 62.5028 131.573 61.7784C132.4 61.0455 133.35 60.3125 134.424 59.5795L138.208 56.767C138.949 56.2812 139.542 55.7614 139.985 55.2074C140.437 54.6534 140.662 53.929 140.662 53.0341C140.662 52.3693 140.368 51.7259 139.78 51.1037C139.201 50.4815 138.438 50.1705 137.492 50.1705C136.827 50.1705 136.239 50.3409 135.728 50.6818C135.225 51.0142 134.829 51.4403 134.539 51.9602C134.258 52.4716 134.117 53 134.117 53.5455C134.117 54.1591 134.283 54.7812 134.616 55.4119C134.956 56.0341 135.387 56.6733 135.907 57.3295C136.435 57.9773 136.981 58.642 137.543 59.3239L149.56 74H145.93L136.009 62.0341C135.089 60.9261 134.253 59.9205 133.503 59.017C132.753 58.1136 132.157 57.223 131.714 56.3452C131.27 55.4673 131.049 54.517 131.049 53.4943C131.049 52.3182 131.309 51.2869 131.829 50.4006C132.357 49.5057 133.094 48.8111 134.04 48.3168C134.995 47.8139 136.111 47.5625 137.39 47.5625C138.702 47.5625 139.831 47.8182 140.778 48.3295C141.724 48.8324 142.452 49.5014 142.964 50.3366C143.475 51.1634 143.731 52.0625 143.731 53.0341C143.731 54.2869 143.42 55.3736 142.797 56.294C142.175 57.2145 141.327 58.071 140.253 58.8636L135.037 62.75C133.861 63.6193 133.064 64.4631 132.647 65.2812C132.229 66.0994 132.02 66.6875 132.02 67.0455C132.02 67.8636 132.233 68.6264 132.66 69.3338C133.086 70.0412 133.687 70.6122 134.462 71.0469C135.238 71.4815 136.145 71.6989 137.185 71.6989C138.174 71.6989 139.137 71.4901 140.074 71.0724C141.012 70.6463 141.86 70.0327 142.618 69.2315C143.385 68.4304 143.991 67.4673 144.434 66.3423C144.885 65.2173 145.111 63.9517 145.111 62.5455H148.026C148.026 64.2841 147.826 65.7031 147.425 66.8026C147.025 67.902 146.573 68.7628 146.07 69.3849C145.567 70.0071 145.162 70.4716 144.856 70.7784C144.753 70.9062 144.66 71.0341 144.574 71.1619C144.489 71.2898 144.395 71.4176 144.293 71.5455C143.449 72.4915 142.384 73.1989 141.097 73.6676C139.81 74.1278 138.54 74.358 137.287 74.358ZM174.07 47.8182V74H171.002L156.735 53.4432H156.48V74H153.309V47.8182H156.377L170.695 68.4261H170.951V47.8182H174.07ZM192.381 65.9716V54.3636H195.398V74H192.381V70.6761H192.176C191.716 71.6733 191 72.5213 190.028 73.2202C189.057 73.9105 187.829 74.2557 186.346 74.2557C185.119 74.2557 184.028 73.9872 183.074 73.4503C182.119 72.9048 181.369 72.0866 180.824 70.9957C180.278 69.8963 180.006 68.5114 180.006 66.8409V54.3636H183.023V66.6364C183.023 68.0682 183.423 69.2102 184.224 70.0625C185.034 70.9148 186.065 71.3409 187.318 71.3409C188.068 71.3409 188.831 71.1491 189.606 70.7656C190.39 70.3821 191.047 69.794 191.575 69.0014C192.112 68.2088 192.381 67.1989 192.381 65.9716ZM209.463 54.3636V56.9205H199.287V54.3636H209.463ZM202.253 49.6591H205.27V68.375C205.27 69.2273 205.394 69.8665 205.641 70.2926C205.896 70.7102 206.22 70.9915 206.612 71.1364C207.013 71.2727 207.435 71.3409 207.878 71.3409C208.21 71.3409 208.483 71.3239 208.696 71.2898C208.909 71.2472 209.08 71.2131 209.208 71.1875L209.821 73.8977C209.617 73.9744 209.331 74.0511 208.965 74.1278C208.598 74.2131 208.134 74.2557 207.571 74.2557C206.719 74.2557 205.884 74.0724 205.066 73.706C204.256 73.3395 203.583 72.7812 203.046 72.0312C202.517 71.2812 202.253 70.3352 202.253 69.1932V49.6591ZM214.002 74V54.3636H216.916V57.3295H217.121C217.479 56.358 218.127 55.5696 219.064 54.9645C220.002 54.3594 221.058 54.0568 222.235 54.0568C222.456 54.0568 222.733 54.0611 223.066 54.0696C223.398 54.0781 223.649 54.0909 223.82 54.108V57.1761C223.718 57.1506 223.483 57.1122 223.117 57.0611C222.759 57.0014 222.379 56.9716 221.979 56.9716C221.024 56.9716 220.172 57.1719 219.422 57.5724C218.681 57.9645 218.093 58.5099 217.658 59.2088C217.232 59.8991 217.019 60.6875 217.019 61.5739V74H214.002ZM227.396 74V54.3636H230.413V74H227.396ZM228.93 51.0909C228.342 51.0909 227.835 50.8906 227.409 50.4901C226.991 50.0895 226.782 49.608 226.782 49.0455C226.782 48.483 226.991 48.0014 227.409 47.6009C227.835 47.2003 228.342 47 228.93 47C229.518 47 230.021 47.2003 230.439 47.6009C230.865 48.0014 231.078 48.483 231.078 49.0455C231.078 49.608 230.865 50.0895 230.439 50.4901C230.021 50.8906 229.518 51.0909 228.93 51.0909ZM244.479 54.3636V56.9205H234.303V54.3636H244.479ZM237.269 49.6591H240.286V68.375C240.286 69.2273 240.409 69.8665 240.656 70.2926C240.912 70.7102 241.236 70.9915 241.628 71.1364C242.029 71.2727 242.45 71.3409 242.894 71.3409C243.226 71.3409 243.499 71.3239 243.712 71.2898C243.925 71.2472 244.095 71.2131 244.223 71.1875L244.837 73.8977C244.632 73.9744 244.347 74.0511 243.98 74.1278C243.614 74.2131 243.149 74.2557 242.587 74.2557C241.735 74.2557 240.899 74.0724 240.081 73.706C239.271 73.3395 238.598 72.7812 238.061 72.0312C237.533 71.2812 237.269 70.3352 237.269 69.1932V49.6591ZM249.017 74V54.3636H252.034V74H249.017ZM250.551 51.0909C249.963 51.0909 249.456 50.8906 249.03 50.4901C248.612 50.0895 248.404 49.608 248.404 49.0455C248.404 48.483 248.612 48.0014 249.03 47.6009C249.456 47.2003 249.963 47 250.551 47C251.139 47 251.642 47.2003 252.06 47.6009C252.486 48.0014 252.699 48.483 252.699 49.0455C252.699 49.608 252.486 50.0895 252.06 50.4901C251.642 50.8906 251.139 51.0909 250.551 51.0909ZM265.537 74.4091C263.765 74.4091 262.209 73.9872 260.871 73.1435C259.542 72.2997 258.502 71.1193 257.752 69.6023C257.01 68.0852 256.64 66.3125 256.64 64.2841C256.64 62.2386 257.01 60.4531 257.752 58.9276C258.502 57.402 259.542 56.2173 260.871 55.3736C262.209 54.5298 263.765 54.108 265.537 54.108C267.31 54.108 268.861 54.5298 270.191 55.3736C271.529 56.2173 272.569 57.402 273.31 58.9276C274.06 60.4531 274.435 62.2386 274.435 64.2841C274.435 66.3125 274.06 68.0852 273.31 69.6023C272.569 71.1193 271.529 72.2997 270.191 73.1435C268.861 73.9872 267.31 74.4091 265.537 74.4091ZM265.537 71.6989C266.884 71.6989 267.992 71.3537 268.861 70.6634C269.731 69.973 270.374 69.0653 270.792 67.9403C271.209 66.8153 271.418 65.5966 271.418 64.2841C271.418 62.9716 271.209 61.7486 270.792 60.6151C270.374 59.4815 269.731 58.5653 268.861 57.8665C267.992 57.1676 266.884 56.8182 265.537 56.8182C264.191 56.8182 263.083 57.1676 262.214 57.8665C261.344 58.5653 260.701 59.4815 260.283 60.6151C259.866 61.7486 259.657 62.9716 259.657 64.2841C259.657 65.5966 259.866 66.8153 260.283 67.9403C260.701 69.0653 261.344 69.973 262.214 70.6634C263.083 71.3537 264.191 71.6989 265.537 71.6989ZM282.058 62.1875V74H279.041V54.3636H281.955V57.4318H282.211C282.671 56.4347 283.37 55.6335 284.308 55.0284C285.245 54.4148 286.455 54.108 287.938 54.108C289.268 54.108 290.431 54.3807 291.428 54.9261C292.426 55.4631 293.201 56.2812 293.755 57.3807C294.309 58.4716 294.586 59.8523 294.586 61.5227V74H291.569V61.7273C291.569 60.1847 291.169 58.983 290.367 58.1222C289.566 57.2528 288.467 56.8182 287.069 56.8182C286.106 56.8182 285.245 57.027 284.487 57.4446C283.737 57.8622 283.144 58.4716 282.71 59.2727C282.275 60.0739 282.058 61.0455 282.058 62.1875Z" fill="#66AF6B"/>
<rect y="110" width="338" height="12" fill="#D9D9D9"/>
</g>
<rect x="356" y="12" width="12" height="80" fill="#D9D9D9"/>
<rect width="12" height="110" fill="#D9D9D9"/>
<rect x="368" y="110" width="12" height="12" fill="#66AF6B"/>
</g>
<defs>
<clipPath id="clip0_1_2">
<rect width="380" height="122" fill="white"/>
</clipPath>
<clipPath id="clip1_1_2">
<rect width="368" height="122" fill="white"/>
</clipPath>
</defs>
</svg>
